<svg width="20" height="20" viewBox="0 0 20 20" fill="none" xmlns="http://www.w3.org/2000/svg">
<path fill-rule="evenodd" clip-rule="evenodd" d="M7.73664 2.50999C8.1393 2.10735 8.65231 1.83315 9.2108 1.72207C9.7693 1.61098 10.3482 1.668 10.8743 1.88591C11.4004 2.10382 11.85 2.47283 12.1664 2.94629C12.4828 3.41975 12.6516 3.97639 12.6516 4.54583V9.99999C12.6516 10.7636 12.3483 11.4959 11.8084 12.0359C11.2684 12.5758 10.5361 12.8792 9.77248 12.8792C9.00887 12.8792 8.27655 12.5758 7.7366 12.0359C7.19665 11.4959 6.89331 10.7636 6.89331 9.99999V4.54583C6.89331 3.78166 7.19664 3.04999 7.73664 2.50999ZM9.77248 3.33333C9.61329 3.33333 9.45566 3.36469 9.3086 3.42564C9.16154 3.48658 9.02793 3.57591 8.9154 3.68851C8.80288 3.80111 8.71365 3.93478 8.6528 4.08189C8.59196 4.22899 8.5607 4.38664 8.56081 4.54583V9.99999C8.56081 10.3215 8.68851 10.6298 8.91582 10.8571C9.14313 11.0844 9.45143 11.2121 9.77289 11.2121C10.0944 11.2121 10.4027 11.0844 10.63 10.8571C10.8573 10.6298 10.985 10.3215 10.985 9.99999V4.54583C10.9851 4.38657 10.9538 4.22885 10.8929 4.08169C10.832 3.93454 10.7427 3.80083 10.6301 3.68822C10.5175 3.5756 10.3838 3.48629 10.2366 3.4254C10.0895 3.3645 9.93174 3.33322 9.77248 3.33333Z" fill="#8e51ff"/>
<path fill-rule="evenodd" clip-rule="evenodd" d="M5.00008 7.80334C5.2211 7.80334 5.43306 7.89114 5.58934 8.04742C5.74562 8.2037 5.83341 8.41566 5.83341 8.63668V10C5.83341 11.0447 6.24843 12.0467 6.98717 12.7854C7.72591 13.5242 8.72785 13.9392 9.77258 13.9392C10.8173 13.9392 11.8193 13.5242 12.558 12.7854C13.2967 12.0467 13.7117 11.0447 13.7117 10V8.63668C13.7117 8.41566 13.7995 8.2037 13.9558 8.04742C14.1121 7.89114 14.3241 7.80334 14.5451 7.80334C14.7661 7.80334 14.9781 7.89114 15.1343 8.04742C15.2906 8.2037 15.3784 8.41566 15.3784 8.63668V10C15.3784 11.4868 14.7878 12.9126 13.7365 13.9639C12.6852 15.0152 11.2593 15.6058 9.77258 15.6058C8.28582 15.6058 6.85996 15.0152 5.80866 13.9639C4.75736 12.9126 4.16675 11.4868 4.16675 10V8.63668C4.16675 8.41566 4.25455 8.2037 4.41083 8.04742C4.56711 7.89114 4.77907 7.80334 5.00008 7.80334Z" fill="#8e51ff"/>
<path fill-rule="evenodd" clip-rule="evenodd" d="M9.77254 13.9392C9.99356 13.9392 10.2055 14.027 10.3618 14.1833C10.5181 14.3395 10.6059 14.5515 10.6059 14.7725V17.5C10.6059 17.721 10.5181 17.933 10.3618 18.0893C10.2055 18.2455 9.99356 18.3333 9.77254 18.3333C9.55153 18.3333 9.33957 18.2455 9.18329 18.0893C9.02701 17.933 8.93921 17.721 8.93921 17.5V14.7725C8.93921 14.5515 9.02701 14.3395 9.18329 14.1833C9.33957 14.027 9.55153 13.9392 9.77254 13.9392Z" fill="#8e51ff"/>
<path fill-rule="evenodd" clip-rule="evenodd" d="M6.21167 17.5C6.21167 17.279 6.29947 17.067 6.45575 16.9107C6.61203 16.7545 6.82399 16.6667 7.045 16.6667H12.5C12.721 16.6667 12.933 16.7545 13.0893 16.9107C13.2455 17.067 13.3333 17.279 13.3333 17.5C13.3333 17.721 13.2455 17.933 13.0893 18.0892C12.933 18.2455 12.721 18.3333 12.5 18.3333H7.045C6.82399 18.3333 6.61203 18.2455 6.45575 18.0892C6.29947 17.933 6.21167 17.721 6.21167 17.5Z" fill="#8e51ff"/>
</svg>
