<svg width="20" height="20" viewBox="0 0 20 20" fill="none" xmlns="http://www.w3.org/2000/svg">
<g clip-path="url(#clip0_39018_2864)">
<path fill-rule="evenodd" clip-rule="evenodd" d="M3.86341 6.06083C3.72285 6.06083 3.58804 6.11667 3.48865 6.21607C3.38925 6.31546 3.33341 6.45027 3.33341 6.59083V13.4092C3.33341 13.5497 3.38925 13.6845 3.48865 13.7839C3.58804 13.8833 3.72285 13.9392 3.86341 13.9392H11.3634C11.4331 13.9393 11.5021 13.9256 11.5665 13.8991C11.6309 13.8725 11.6894 13.8335 11.7387 13.7842C11.788 13.735 11.8271 13.6765 11.8538 13.6122C11.8805 13.5478 11.8942 13.4788 11.8942 13.4092V13.0725L4.88258 6.06083H3.86341ZM2.31008 5.0375C2.51407 4.83352 2.75624 4.67172 3.02276 4.56134C3.28928 4.45096 3.57494 4.39415 3.86341 4.39417H5.22758C5.44858 4.39421 5.6605 4.48204 5.81675 4.63833L13.3167 12.1383C13.473 12.2946 13.5609 12.5065 13.5609 12.7275V13.4092C13.5609 13.6977 13.5041 13.9834 13.3936 14.25C13.2832 14.5166 13.1213 14.7587 12.9172 14.9627C12.7132 15.1667 12.4709 15.3285 12.2043 15.4389C11.9377 15.5492 11.652 15.6059 11.3634 15.6058H3.86341C3.28082 15.6058 2.72209 15.3744 2.31014 14.9624C1.89818 14.5505 1.66675 13.9918 1.66675 13.4092V6.59083C1.66675 6.0075 1.89841 5.44917 2.31008 5.0375ZM8.25341 5.2275C8.25341 5.00648 8.34121 4.79452 8.49749 4.63824C8.65377 4.48196 8.86573 4.39417 9.08675 4.39417H11.3634C11.9461 4.39416 12.5049 4.62557 12.917 5.0375C13.3291 5.44943 13.5607 6.00816 13.5609 6.59083V8.41166L17.0109 5.91583C17.1353 5.82564 17.2822 5.7716 17.4354 5.75967C17.5886 5.74774 17.7421 5.7784 17.8789 5.84824C18.0158 5.91809 18.1306 6.02442 18.2109 6.15546C18.2911 6.28651 18.3335 6.43719 18.3334 6.59083V13.4092C18.3334 13.6302 18.2456 13.8421 18.0893 13.9984C17.9331 14.1547 17.7211 14.2425 17.5001 14.2425C17.2791 14.2425 17.0671 14.1547 16.9108 13.9984C16.7545 13.8421 16.6667 13.6302 16.6667 13.4092V8.2225L13.8976 10.225C13.7371 10.3411 13.5405 10.3962 13.343 10.3805C13.1456 10.3647 12.9602 10.2792 12.8201 10.1392L12.1384 9.4575C11.9821 9.30125 11.8943 9.08933 11.8942 8.86833V6.59083C11.8942 6.52116 11.8805 6.45217 11.8538 6.38782C11.8271 6.32346 11.788 6.265 11.7387 6.21577C11.6894 6.16654 11.6309 6.12752 11.5665 6.10094C11.5021 6.07435 11.4331 6.06072 11.3634 6.06083H9.08675C8.86573 6.06083 8.65377 5.97303 8.49749 5.81675C8.34121 5.66047 8.25341 5.44851 8.25341 5.2275Z" fill="#8e51ff"/>
<path fill-rule="evenodd" clip-rule="evenodd" d="M1.91074 1.91083C2.06701 1.7546 2.27893 1.66684 2.4999 1.66684C2.72087 1.66684 2.9328 1.7546 3.08907 1.91083L18.0891 16.9108C18.2409 17.068 18.3249 17.2785 18.323 17.497C18.3211 17.7155 18.2334 17.9245 18.0789 18.079C17.9244 18.2335 17.7154 18.3212 17.4969 18.3231C17.2784 18.325 17.0679 18.241 16.9107 18.0892L1.91074 3.08916C1.75451 2.93289 1.66675 2.72096 1.66675 2.49999C1.66675 2.27902 1.75451 2.0671 1.91074 1.91083Z" fill="#8e51ff"/>
</g>
<defs>
<clipPath id="clip0_39018_2864">
<rect width="20" height="20" fill="white"/>
</clipPath>
</defs>
</svg>
